<svg xmlns="http://www.w3.org/2000/svg" xmlns:xlink="http://www.w3.org/1999/xlink" width="130" height="70" viewBox="0 0 130 70">
  <defs>
    <clipPath id="clip-path">
      <rect id="Rectangle_2" data-name="Rectangle 2" width="70" height="70" fill="#fff" stroke="#707070" stroke-width="1"/>
    </clipPath>
  </defs>
  <g id="Group_1" data-name="Group 1" transform="translate(-100 -50)">
    <g id="Component_4_1" data-name="Component 4 – 1" transform="translate(100 50)">
      <g id="Mask_Group_1" data-name="Mask Group 1" clip-path="url(#clip-path)">
        <path id="reshot-icon-sneakers-boots-UYJP6CWRLT" d="M58.795,21.818a7.165,7.165,0,0,1-3.182-.751L32.331,9.425a3.182,3.182,0,0,0-3.669.595,18.661,18.661,0,0,1-10.481,5.435A18.661,18.661,0,0,1,7.7,10.02a3.182,3.182,0,0,0-5.428,2.253V56.818A3.182,3.182,0,0,0,5.455,60H69.091a3.182,3.182,0,0,0,3.182-3.182V35.3A13.491,13.491,0,0,0,58.795,21.818ZM8.636,18.738a18.875,18.875,0,0,0,9.545,3.08,22.489,22.489,0,0,0,13.24-5.727L52.765,26.763a13.526,13.526,0,0,0,6.03,1.419A7.121,7.121,0,0,1,65.909,35.3v5.613H8.636Zm57.273,34.9H8.636V47.273H65.909Z" transform="translate(-2.273 0.455)" fill="#fff"/>
      </g>
      <text id="NO_CREASE_BLOG" data-name="NO
CREASE
BLOG" transform="translate(75 22)" fill="#fff" font-size="24" font-family="BebasNeue-Regular, Bebas Neue"><tspan x="0" y="0">NO</tspan><tspan x="0" y="20">CREASE</tspan><tspan x="0" y="40">BLOG</tspan></text>
    </g>
  </g>
</svg>
